<svg xmlns="http://www.w3.org/2000/svg" viewBox="0 0 900 620" font-family="system-ui, -apple-system, sans-serif">

  <!-- Background -->
  <rect width="900" height="620" fill="#f9fafb" rx="12"/>

  <!-- Title -->
  <text x="450" y="38" text-anchor="middle" font-size="18" font-weight="600" fill="#111827">.clickr — System Architecture</text>
  <text x="450" y="58" text-anchor="middle" font-size="12" fill="#9ca3af">Real-time collaborative UXR tagging · Firebase Firestore · React + Vite</text>

  <!-- ── CLIENTS LAYER ── -->
  <text x="40" y="95" font-size="11" font-weight="600" fill="#6b7280" letter-spacing="0.08em">CLIENTS</text>
  <line x1="40" y1="100" x2="860" y2="100" stroke="#e5e7eb" stroke-width="1"/>

  <!-- Host Browser -->
  <rect x="60" y="115" width="160" height="80" rx="10" fill="#fff" stroke="#d1d5db" stroke-width="1.5"/>
  <text x="140" y="148" text-anchor="middle" font-size="13" font-weight="600" fill="#374151">Host Browser</text>
  <text x="140" y="165" text-anchor="middle" font-size="11" fill="#6b7280">Creates session</text>
  <text x="140" y="180" text-anchor="middle" font-size="11" fill="#6b7280">Tags · Pause · End</text>

  <!-- Observer Browsers -->
  <rect x="260" y="115" width="160" height="80" rx="10" fill="#fff" stroke="#d1d5db" stroke-width="1.5"/>
  <text x="340" y="148" text-anchor="middle" font-size="13" font-weight="600" fill="#374151">Observer Browser</text>
  <text x="340" y="165" text-anchor="middle" font-size="11" fill="#6b7280">Joins via 6-char code</text>
  <text x="340" y="180" text-anchor="middle" font-size="11" fill="#6b7280">Tags · Reactions</text>

  <!-- Observer 2 (faded) -->
  <rect x="265" y="120" width="160" height="80" rx="10" fill="none" stroke="#e5e7eb" stroke-width="1" stroke-dasharray="4,3"/>

  <!-- ── REACT APP LAYER ── -->
  <text x="40" y="230" font-size="11" font-weight="600" fill="#6b7280" letter-spacing="0.08em">REACT APP  (Vite · Tailwind CSS)</text>
  <line x1="40" y1="235" x2="860" y2="235" stroke="#e5e7eb" stroke-width="1"/>

  <!-- Screen boxes -->
  <!-- WelcomeScreen -->
  <rect x="40" y="248" width="110" height="52" rx="8" fill="#eff6ff" stroke="#bfdbfe" stroke-width="1.5"/>
  <text x="95" y="270" text-anchor="middle" font-size="11" font-weight="600" fill="#1d4ed8">Welcome</text>
  <text x="95" y="285" text-anchor="middle" font-size="10" fill="#3b82f6">SetupScreen</text>
  <text x="95" y="297" text-anchor="middle" font-size="10" fill="#3b82f6">JoinScreen</text>

  <!-- SessionScreen -->
  <rect x="165" y="248" width="130" height="52" rx="8" fill="#f0fdf4" stroke="#bbf7d0" stroke-width="1.5"/>
  <text x="230" y="270" text-anchor="middle" font-size="11" font-weight="600" fill="#15803d">SessionScreen</text>
  <text x="230" y="285" text-anchor="middle" font-size="10" fill="#16a34a">Timer · Tags · Pause</text>
  <text x="230" y="297" text-anchor="middle" font-size="10" fill="#16a34a">Reactions · Undo</text>

  <!-- SummaryScreen -->
  <rect x="310" y="248" width="120" height="52" rx="8" fill="#fefce8" stroke="#fde68a" stroke-width="1.5"/>
  <text x="370" y="270" text-anchor="middle" font-size="11" font-weight="600" fill="#92400e">SummaryScreen</text>
  <text x="370" y="285" text-anchor="middle" font-size="10" fill="#b45309">Tag counts</text>
  <text x="370" y="297" text-anchor="middle" font-size="10" fill="#b45309">Participant list</text>

  <!-- ReviewScreen -->
  <rect x="445" y="248" width="130" height="52" rx="8" fill="#fdf4ff" stroke="#e9d5ff" stroke-width="1.5"/>
  <text x="510" y="270" text-anchor="middle" font-size="11" font-weight="600" fill="#7e22ce">ReviewScreen</text>
  <text x="510" y="285" text-anchor="middle" font-size="10" fill="#9333ea">Transcript match</text>
  <text x="510" y="297" text-anchor="middle" font-size="10" fill="#9333ea">CSV · HTML export</text>

  <!-- HistoryScreen -->
  <rect x="590" y="248" width="120" height="52" rx="8" fill="#fff7ed" stroke="#fed7aa" stroke-width="1.5"/>
  <text x="650" y="270" text-anchor="middle" font-size="11" font-weight="600" fill="#c2410c">HistoryScreen</text>
  <text x="650" y="285" text-anchor="middle" font-size="10" fill="#ea580c">All sessions</text>
  <text x="650" y="297" text-anchor="middle" font-size="10" fill="#ea580c">By project</text>

  <!-- localStorage -->
  <rect x="725" y="248" width="130" height="52" rx="8" fill="#f1f5f9" stroke="#cbd5e1" stroke-width="1.5"/>
  <text x="790" y="270" text-anchor="middle" font-size="11" font-weight="600" fill="#475569">localStorage</text>
  <text x="790" y="285" text-anchor="middle" font-size="10" fill="#64748b">userName</text>
  <text x="790" y="297" text-anchor="middle" font-size="10" fill="#64748b">button presets</text>

  <!-- ── FIREBASE LAYER ── -->
  <text x="40" y="338" font-size="11" font-weight="600" fill="#6b7280" letter-spacing="0.08em">FIREBASE  (Firestore · Real-time)</text>
  <line x1="40" y1="343" x2="860" y2="343" stroke="#e5e7eb" stroke-width="1"/>

  <!-- sessions collection -->
  <rect x="60" y="358" width="220" height="110" rx="10" fill="#fff" stroke="#f97316" stroke-width="2"/>
  <text x="170" y="380" text-anchor="middle" font-size="12" font-weight="700" fill="#ea580c">sessions collection</text>
  <line x1="75" y1="387" x2="265" y2="387" stroke="#fed7aa" stroke-width="1"/>
  <text x="80" y="403" font-size="10" fill="#374151">• name, projectName, code, status</text>
  <text x="80" y="418" font-size="10" fill="#374151">• startedAt, endedAt, password</text>
  <text x="80" y="433" font-size="10" fill="#374151">• buttons[ ] — customizable tags</text>
  <text x="80" y="448" font-size="10" fill="#374151">• tags[ ] — timestamped clicks</text>
  <text x="80" y="463" font-size="10" fill="#374151">• participants[ ] · reactions[ ]</text>

  <!-- presence collection -->
  <rect x="310" y="358" width="200" height="110" rx="10" fill="#fff" stroke="#8b5cf6" stroke-width="2"/>
  <text x="410" y="380" text-anchor="middle" font-size="12" font-weight="700" fill="#7c3aed">presence collection</text>
  <line x1="325" y1="387" x2="495" y2="387" stroke="#ddd6fe" stroke-width="1"/>
  <text x="330" y="403" font-size="10" fill="#374151">• userName → lastSeen (ms)</text>
  <text x="330" y="418" font-size="10" fill="#374151">• Heartbeat every 30s</text>
  <text x="330" y="433" font-size="10" fill="#374151">• Cleared on tab close</text>
  <text x="330" y="448" font-size="10" fill="#374151">  (beforeunload event)</text>

  <!-- Realtime subscriptions callout -->
  <rect x="540" y="358" width="300" height="110" rx="10" fill="#f0fdf4" stroke="#86efac" stroke-width="1.5"/>
  <text x="690" y="378" text-anchor="middle" font-size="12" font-weight="700" fill="#15803d">Real-time Subscriptions</text>
  <line x1="555" y1="385" x2="825" y2="385" stroke="#bbf7d0" stroke-width="1"/>
  <text x="560" y="401" font-size="10" fill="#374151">subscribeToSession(id)</text>
  <text x="560" y="416" font-size="10" fill="#6b7280">  → onSnapshot on single doc</text>
  <text x="560" y="431" font-size="10" fill="#374151">subscribeToAllSessions()</text>
  <text x="560" y="446" font-size="10" fill="#6b7280">  → onSnapshot ordered by startedAt</text>
  <text x="560" y="461" font-size="10" fill="#6b7280">  → drives history + live session detect</text>

  <!-- ── SESSION FLOW ── -->
  <text x="40" y="508" font-size="11" font-weight="600" fill="#6b7280" letter-spacing="0.08em">SESSION LIFECYCLE</text>
  <line x1="40" y1="513" x2="860" y2="513" stroke="#e5e7eb" stroke-width="1"/>

  <!-- Flow steps -->
  <rect x="40" y="526" width="100" height="40" rx="8" fill="#dbeafe" stroke="#93c5fd" stroke-width="1.5"/>
  <text x="90" y="542" text-anchor="middle" font-size="10" font-weight="600" fill="#1e40af">1. Create</text>
  <text x="90" y="557" text-anchor="middle" font-size="10" fill="#3b82f6">Host + code</text>

  <text x="152" y="550" text-anchor="middle" font-size="16" fill="#9ca3af">→</text>

  <rect x="165" y="526" width="100" height="40" rx="8" fill="#dcfce7" stroke="#86efac" stroke-width="1.5"/>
  <text x="215" y="542" text-anchor="middle" font-size="10" font-weight="600" fill="#166534">2. Join</text>
  <text x="215" y="557" text-anchor="middle" font-size="10" fill="#16a34a">6-char code</text>

  <text x="277" y="550" text-anchor="middle" font-size="16" fill="#9ca3af">→</text>

  <rect x="290" y="526" width="110" height="40" rx="8" fill="#fef9c3" stroke="#fde047" stroke-width="1.5"/>
  <text x="345" y="542" text-anchor="middle" font-size="10" font-weight="600" fill="#854d0e">3. Live Session</text>
  <text x="345" y="557" text-anchor="middle" font-size="10" fill="#a16207">Tag · React · Pause</text>

  <text x="412" y="550" text-anchor="middle" font-size="16" fill="#9ca3af">→</text>

  <rect x="425" y="526" width="100" height="40" rx="8" fill="#fce7f3" stroke="#f9a8d4" stroke-width="1.5"/>
  <text x="475" y="542" text-anchor="middle" font-size="10" font-weight="600" fill="#9d174d">4. End</text>
  <text x="475" y="557" text-anchor="middle" font-size="10" fill="#be185d">status=ended</text>

  <text x="537" y="550" text-anchor="middle" font-size="16" fill="#9ca3af">→</text>

  <rect x="550" y="526" width="110" height="40" rx="8" fill="#ede9fe" stroke="#c4b5fd" stroke-width="1.5"/>
  <text x="605" y="542" text-anchor="middle" font-size="10" font-weight="600" fill="#5b21b6">5. Review</text>
  <text x="605" y="557" text-anchor="middle" font-size="10" fill="#7c3aed">Transcript align</text>

  <text x="672" y="550" text-anchor="middle" font-size="16" fill="#9ca3af">→</text>

  <rect x="685" y="526" width="100" height="40" rx="8" fill="#f1f5f9" stroke="#94a3b8" stroke-width="1.5"/>
  <text x="735" y="542" text-anchor="middle" font-size="10" font-weight="600" fill="#334155">6. Export</text>
  <text x="735" y="557" text-anchor="middle" font-size="10" fill="#475569">CSV · HTML</text>

  <!-- Arrows from clients to React app -->
  <line x1="140" y1="195" x2="140" y2="248" stroke="#9ca3af" stroke-width="1.5" marker-end="url(#arrow)"/>
  <line x1="340" y1="195" x2="340" y2="248" stroke="#9ca3af" stroke-width="1.5" marker-end="url(#arrow)"/>

  <!-- Arrows from React app to Firebase -->
  <line x1="170" y1="300" x2="170" y2="358" stroke="#f97316" stroke-width="1.5" stroke-dasharray="4,3" marker-end="url(#arrowOrange)"/>
  <line x1="410" y1="300" x2="410" y2="358" stroke="#8b5cf6" stroke-width="1.5" stroke-dasharray="4,3" marker-end="url(#arrowPurple)"/>

  <!-- Arrow defs -->
  <defs>
    <marker id="arrow" markerWidth="8" markerHeight="8" refX="6" refY="3" orient="auto">
      <path d="M0,0 L0,6 L8,3 z" fill="#9ca3af"/>
    </marker>
    <marker id="arrowOrange" markerWidth="8" markerHeight="8" refX="6" refY="3" orient="auto">
      <path d="M0,0 L0,6 L8,3 z" fill="#f97316"/>
    </marker>
    <marker id="arrowPurple" markerWidth="8" markerHeight="8" refX="6" refY="3" orient="auto">
      <path d="M0,0 L0,6 L8,3 z" fill="#8b5cf6"/>
    </marker>
  </defs>

</svg>
